<?xml version="1.0" encoding="UTF-8" standalone="no"?>
<!DOCTYPE svg PUBLIC "-//W3C//DTD SVG 1.1//EN"
 "http://www.w3.org/Graphics/SVG/1.1/DTD/svg11.dtd">
<!-- Generated by graphviz version 2.38.0 (20140413.2041)
 -->
<!-- Title: cameron_method Pages: 1 -->
<svg width="515pt" height="512pt"
 viewBox="0.00 0.00 514.88 512.00" xmlns="http://www.w3.org/2000/svg" xmlns:xlink="http://www.w3.org/1999/xlink">
<g id="graph0" class="graph" transform="scale(1 1) rotate(0) translate(4 508)">
<title>cameron_method</title>
<polygon fill="white" stroke="none" points="-4,4 -4,-508 510.883,-508 510.883,4 -4,4"/>
<g id="clust2" class="cluster"><title>cluster_build_dict</title>
<polygon fill="none" stroke="black" points="8.7627,-191 8.7627,-441 167.763,-441 167.763,-191 8.7627,-191"/>
<text text-anchor="middle" x="88.2627" y="-425.8" font-family="Helvetica,sans-Serif" font-size="14.00">Build the dictionary</text>
</g>
<g id="clust4" class="cluster"><title>cluster_prepoc</title>
<polygon fill="none" stroke="black" points="217.763,-91 217.763,-441 411.763,-441 411.763,-91 217.763,-91"/>
<text text-anchor="middle" x="314.763" y="-425.8" font-family="Helvetica,sans-Serif" font-size="14.00">Pre&#45;process for classification</text>
</g>
<!-- img1 -->
<g id="node1" class="node"><title>img1</title>
<text text-anchor="middle" x="90.7627" y="-481.8" font-family="Helvetica,sans-Serif" font-size="14.00">Image</text>
</g>
<!-- det1 -->
<g id="node3" class="node"><title>det1</title>
<polygon fill="none" stroke="darkgreen" points="119.227,-409 62.2989,-409 62.2989,-373 119.227,-373 119.227,-409"/>
<text text-anchor="middle" x="90.7627" y="-386.8" font-family="Helvetica,sans-Serif" font-size="14.00">Detect</text>
</g>
<!-- img1&#45;&gt;det1 -->
<g id="edge1" class="edge"><title>img1&#45;&gt;det1</title>
<path fill="none" stroke="black" d="M90.7627,-467.942C90.7627,-454.394 90.7627,-435.18 90.7627,-419.469"/>
<polygon fill="black" stroke="black" points="94.2628,-419.264 90.7627,-409.264 87.2628,-419.264 94.2628,-419.264"/>
</g>
<!-- dict1 -->
<g id="node2" class="node"><title>dict1</title>
<text text-anchor="middle" x="90.7627" y="-135.8" font-family="Helvetica,sans-Serif" font-size="14.00">Dictionary </text>
<text text-anchor="middle" x="90.7627" y="-121.8" font-family="Helvetica,sans-Serif" font-size="14.00"> {..., </text>
<text text-anchor="middle" x="90.7627" y="-107.8" font-family="Helvetica,sans-Serif" font-size="14.00">cluster_k: {[0110],[1010]} , </text>
<text text-anchor="middle" x="90.7627" y="-93.8" font-family="Helvetica,sans-Serif" font-size="14.00">...}</text>
</g>
<!-- desc1 -->
<g id="node5" class="node"><title>desc1</title>
<polygon fill="none" stroke="darkgreen" points="126.504,-323 55.0211,-323 55.0211,-287 126.504,-287 126.504,-323"/>
<text text-anchor="middle" x="90.7627" y="-300.8" font-family="Helvetica,sans-Serif" font-size="14.00">Describe</text>
</g>
<!-- det1&#45;&gt;desc1 -->
<g id="edge3" class="edge"><title>det1&#45;&gt;desc1</title>
<path fill="none" stroke="black" d="M90.7627,-372.595C90.7627,-361.257 90.7627,-346.227 90.7627,-333.315"/>
<polygon fill="black" stroke="black" points="94.2628,-333.095 90.7627,-323.095 87.2628,-333.095 94.2628,-333.095"/>
<text text-anchor="middle" x="109.045" y="-343.8" font-family="Helvetica,sans-Serif" font-size="14.00" fill="darkgreen">{(x,y)}</text>
</g>
<!-- cluster -->
<g id="node4" class="node"><title>cluster</title>
<polygon fill="none" stroke="darkgreen" points="130.27,-237 51.2559,-237 51.2559,-201 130.27,-201 130.27,-237"/>
<text text-anchor="middle" x="90.7627" y="-221.8" font-family="Helvetica,sans-Serif" font-size="14.00">Cluster </text>
<text text-anchor="middle" x="90.7627" y="-207.8" font-family="Helvetica,sans-Serif" font-size="14.00">(k&#45;means)</text>
</g>
<!-- cluster&#45;&gt;dict1 -->
<g id="edge2" class="edge"><title>cluster&#45;&gt;dict1</title>
<path fill="none" stroke="black" d="M90.7627,-200.93C90.7627,-190.005 90.7627,-175.329 90.7627,-161.475"/>
<polygon fill="black" stroke="black" points="94.2628,-161.117 90.7627,-151.117 87.2628,-161.117 94.2628,-161.117"/>
</g>
<!-- desc1&#45;&gt;cluster -->
<g id="edge4" class="edge"><title>desc1&#45;&gt;cluster</title>
<path fill="none" stroke="black" d="M90.7627,-286.595C90.7627,-275.257 90.7627,-260.227 90.7627,-247.315"/>
<polygon fill="black" stroke="black" points="94.2628,-247.095 90.7627,-237.095 87.2628,-247.095 94.2628,-247.095"/>
<text text-anchor="middle" x="124.112" y="-257.8" font-family="Helvetica,sans-Serif" font-size="14.00" fill="darkgreen">{[01011...]}</text>
</g>
<!-- feature_hist -->
<g id="node6" class="node"><title>feature_hist</title>
<text text-anchor="middle" x="326.763" y="-34.8" font-family="Helvetica,sans-Serif" font-size="14.00">Feature Vector </text>
<text text-anchor="middle" x="326.763" y="-20.8" font-family="Helvetica,sans-Serif" font-size="14.00"> (Histogram) </text>
<text text-anchor="middle" x="326.763" y="-6.8" font-family="Helvetica,sans-Serif" font-size="14.00"> [390...]</text>
</g>
<!-- img2 -->
<g id="node7" class="node"><title>img2</title>
<text text-anchor="middle" x="320.763" y="-481.8" font-family="Helvetica,sans-Serif" font-size="14.00">Image</text>
</g>
<!-- det2 -->
<g id="node9" class="node"><title>det2</title>
<polygon fill="none" stroke="darkgreen" points="349.227,-409 292.299,-409 292.299,-373 349.227,-373 349.227,-409"/>
<text text-anchor="middle" x="320.763" y="-386.8" font-family="Helvetica,sans-Serif" font-size="14.00">Detect</text>
</g>
<!-- img2&#45;&gt;det2 -->
<g id="edge5" class="edge"><title>img2&#45;&gt;det2</title>
<path fill="none" stroke="black" d="M320.763,-467.942C320.763,-454.394 320.763,-435.18 320.763,-419.469"/>
<polygon fill="black" stroke="black" points="324.263,-419.264 320.763,-409.264 317.263,-419.264 324.263,-419.264"/>
</g>
<!-- dict2 -->
<g id="node8" class="node"><title>dict2</title>
<text text-anchor="middle" x="467.763" y="-300.8" font-family="Helvetica,sans-Serif" font-size="14.00">Dictionary</text>
</g>
<!-- find_clusters -->
<g id="node10" class="node"><title>find_clusters</title>
<polygon fill="none" stroke="darkgreen" points="398.083,-237 255.442,-237 255.442,-201 398.083,-201 398.083,-237"/>
<text text-anchor="middle" x="326.763" y="-214.8" font-family="Helvetica,sans-Serif" font-size="14.00">Find closest clusters</text>
</g>
<!-- dict2&#45;&gt;find_clusters -->
<g id="edge6" class="edge"><title>dict2&#45;&gt;find_clusters</title>
<path fill="none" stroke="black" d="M438.889,-286.799C417.313,-273.945 387.634,-256.264 364.23,-242.321"/>
<polygon fill="black" stroke="black" points="365.98,-239.29 355.598,-237.178 362.397,-245.303 365.98,-239.29"/>
</g>
<!-- desc2 -->
<g id="node12" class="node"><title>desc2</title>
<polygon fill="none" stroke="darkgreen" points="356.504,-323 285.021,-323 285.021,-287 356.504,-287 356.504,-323"/>
<text text-anchor="middle" x="320.763" y="-300.8" font-family="Helvetica,sans-Serif" font-size="14.00">Describe</text>
</g>
<!-- det2&#45;&gt;desc2 -->
<g id="edge8" class="edge"><title>det2&#45;&gt;desc2</title>
<path fill="none" stroke="black" d="M320.763,-372.595C320.763,-361.257 320.763,-346.227 320.763,-333.315"/>
<polygon fill="black" stroke="black" points="324.263,-333.095 320.763,-323.095 317.263,-333.095 324.263,-333.095"/>
<text text-anchor="middle" x="339.045" y="-343.8" font-family="Helvetica,sans-Serif" font-size="14.00" fill="darkgreen">{(x,y)}</text>
</g>
<!-- hist_clust -->
<g id="node11" class="node"><title>hist_clust</title>
<polygon fill="none" stroke="darkgreen" points="399.728,-137 253.798,-137 253.798,-101 399.728,-101 399.728,-137"/>
<text text-anchor="middle" x="326.763" y="-121.8" font-family="Helvetica,sans-Serif" font-size="14.00">Histogram of </text>
<text text-anchor="middle" x="326.763" y="-107.8" font-family="Helvetica,sans-Serif" font-size="14.00">encountered clusters</text>
</g>
<!-- find_clusters&#45;&gt;hist_clust -->
<g id="edge10" class="edge"><title>find_clusters&#45;&gt;hist_clust</title>
<path fill="none" stroke="black" d="M326.763,-200.93C326.763,-186.125 326.763,-164.432 326.763,-147.231"/>
<polygon fill="black" stroke="black" points="330.263,-147.203 326.763,-137.203 323.263,-147.204 330.263,-147.203"/>
<text text-anchor="middle" x="362.333" y="-171.8" font-family="Helvetica,sans-Serif" font-size="14.00" fill="darkgreen">{n°3,n°9,...}</text>
</g>
<!-- hist_clust&#45;&gt;feature_hist -->
<g id="edge7" class="edge"><title>hist_clust&#45;&gt;feature_hist</title>
<path fill="none" stroke="black" d="M326.763,-100.696C326.763,-89.3305 326.763,-74.0745 326.763,-60.313"/>
<polygon fill="black" stroke="black" points="330.263,-60.17 326.763,-50.17 323.263,-60.1701 330.263,-60.17"/>
</g>
<!-- desc2&#45;&gt;find_clusters -->
<g id="edge9" class="edge"><title>desc2&#45;&gt;find_clusters</title>
<path fill="none" stroke="black" d="M322.006,-286.595C322.816,-275.257 323.889,-260.227 324.812,-247.315"/>
<polygon fill="black" stroke="black" points="328.32,-247.319 325.542,-237.095 321.338,-246.82 328.32,-247.319"/>
<text text-anchor="middle" x="362.005" y="-257.8" font-family="Helvetica,sans-Serif" font-size="14.00" fill="darkgreen">{[010011...]}</text>
</g>
</g>
</svg>
